<?xml version="1.0" standalone="no"?>
<!DOCTYPE svg PUBLIC "-//W3C//DTD SVG 20010904//EN"
 "http://www.w3.org/TR/2001/REC-SVG-20010904/DTD/svg10.dtd">
<svg version="1.0" xmlns="http://www.w3.org/2000/svg"
 width="250.000000pt" height="250.000000pt" viewBox="0 0 250.000000 250.000000"
 preserveAspectRatio="xMidYMid meet">
<metadata>
Created by potrace 1.15, written by Peter Selinger 2001-2017
</metadata>
<g transform="translate(0.000000,250.000000) scale(0.100000,-0.100000)"
fill="#000000" stroke="none">
<path d="M1870 2165 c-7 -8 -21 -15 -32 -15 -11 0 -38 -10 -61 -22 -27 -16
-41 -19 -44 -11 -3 7 -30 -7 -68 -35 -35 -26 -75 -55 -90 -65 -14 -10 -25 -26
-24 -35 3 -33 -1 -42 -19 -42 -10 0 -23 -5 -30 -12 -10 -10 -19 -9 -45 4 -42
21 -115 48 -125 46 -4 0 -14 2 -22 5 -16 7 -75 22 -145 37 -22 5 -51 6 -64 3
-15 -4 -28 -1 -35 8 -6 8 -22 15 -36 16 -46 2 -79 10 -93 22 -13 10 -88 7
-127 -6 -29 -9 22 -33 71 -33 35 0 51 -5 61 -18 9 -13 32 -21 77 -25 36 -4 72
-14 81 -22 11 -10 37 -15 74 -15 88 0 226 -52 226 -86 0 -7 -12 -20 -27 -28
-25 -12 -38 -12 -108 4 -116 26 -206 43 -236 45 -14 1 -30 4 -35 8 -24 14
-322 2 -416 -18 -64 -14 -135 -41 -163 -63 -15 -12 -39 -22 -52 -22 -14 0 -42
-13 -62 -28 -20 -16 -45 -32 -55 -36 -66 -24 73 -5 174 24 163 46 346 59 530
35 74 -9 146 -22 160 -27 14 -5 48 -16 75 -23 64 -17 272 -111 307 -139 15
-11 48 -37 73 -56 95 -71 238 -249 322 -400 50 -90 99 -226 142 -392 22 -87
49 -175 61 -197 11 -22 20 -47 20 -56 0 -19 39 -20 65 -1 17 12 18 17 6 40
-12 22 -12 28 3 50 9 14 16 34 16 44 0 11 10 32 21 47 20 25 21 30 9 79 -10
42 -10 58 0 75 9 18 9 37 0 87 -10 52 -18 68 -41 85 -26 18 -28 24 -23 62 6
38 2 47 -29 85 -20 23 -39 52 -43 64 -3 11 -18 31 -33 43 l-26 23 48 7 c31 5
52 3 61 -4 11 -9 24 -3 61 31 26 24 51 42 55 41 4 -1 20 19 36 44 16 26 46 64
67 84 35 36 47 71 28 83 -13 8 -1 46 14 46 15 0 29 35 20 49 -5 9 -11 52 -18
138 -1 12 -8 28 -14 35 -7 6 -13 17 -13 23 0 6 -14 26 -31 44 -16 18 -28 39
-25 47 3 8 -20 31 -60 59 -35 25 -64 50 -64 55 0 6 -18 13 -40 16 -22 4 -40
11 -40 17 0 13 -31 36 -49 37 -8 0 -22 6 -30 14 -18 15 -96 36 -134 36 -14 0
-30 -7 -37 -15z"/>
<path d="M551 1450 c-35 -10 -66 -22 -70 -27 -3 -5 -27 -22 -52 -37 -73 -42
-177 -143 -205 -199 -26 -51 -54 -159 -54 -213 0 -22 15 -51 48 -95 40 -55 54
-66 92 -75 76 -19 76 -6 0 68 -132 130 -134 161 -22 299 41 52 41 61 0 23 -31
-28 -31 -28 -11 -2 25 33 82 82 99 84 14 2 67 38 97 65 16 15 66 28 157 43 48
8 128 -8 149 -29 15 -16 15 -17 -7 -5 -40 20 -37 2 7 -40 22 -22 41 -45 41
-50 0 -32 -97 -179 -234 -355 l-24 -30 -9 40 c-6 22 -22 90 -36 152 -15 61
-36 127 -47 145 l-21 33 6 -32 c7 -35 -4 -43 -25 -18 -7 8 -16 13 -20 10 -12
-7 -3 -165 14 -237 23 -101 76 -257 89 -265 7 -4 20 -25 29 -45 10 -21 22 -38
28 -38 5 0 16 -12 24 -27 19 -37 52 -74 59 -67 3 3 15 -12 27 -35 11 -23 22
-41 25 -41 5 0 -39 110 -57 144 -16 31 -38 124 -38 164 0 30 13 55 65 127 134
186 199 356 175 458 -8 36 -35 78 -49 75 -3 -1 -19 4 -34 10 -16 7 -34 12 -41
12 -6 0 -16 4 -21 9 -19 19 -90 20 -154 1z"/>
<path d="M1633 1022 c-36 -35 -54 -64 -66 -104 -5 -13 -14 -15 -45 -11 -32 4
-44 1 -61 -16 -11 -11 -28 -21 -35 -21 -33 0 -113 -143 -101 -180 8 -26 32
-25 92 2 26 12 51 21 55 20 4 -1 16 10 27 25 12 14 21 21 21 16 0 -6 -9 -22
-20 -36 -22 -27 -19 -77 4 -77 17 1 142 117 134 125 -4 4 -21 2 -38 -5 -17 -7
-34 -10 -37 -6 -9 8 73 176 114 234 52 74 20 99 -44 34z"/>
<path d="M904 935 c-10 -8 -29 -15 -41 -15 -31 0 -63 -34 -63 -66 0 -21 3 -24
21 -19 12 4 40 27 63 51 24 24 50 44 59 44 21 0 31 -38 18 -72 -5 -14 -7 -29
-4 -32 4 -3 -15 -6 -42 -6 -62 0 -120 -18 -150 -46 -31 -28 -32 -50 -4 -57 12
-3 18 -10 15 -15 -3 -5 23 -8 61 -6 36 2 75 -2 85 -7 16 -8 28 -5 60 18 31 21
37 29 24 31 -12 3 -15 9 -11 20 34 81 44 159 23 180 -17 17 -90 15 -114 -3z"/>
<path d="M1140 919 c-41 -22 -52 -47 -49 -112 3 -42 0 -51 -26 -71 -16 -13
-25 -28 -21 -34 14 -22 39 -12 78 32 21 25 57 59 79 77 l41 32 -3 -39 c-3 -45
10 -124 19 -124 8 0 76 168 88 214 6 24 4 27 -12 23 -11 -4 -31 -9 -46 -12
-15 -4 -29 -12 -31 -18 -6 -15 -97 -81 -97 -70 0 4 9 31 20 59 25 69 20 75
-40 43z"/>
<path d="M1790 884 c-31 -14 -46 -18 -87 -23 -6 0 -17 -17 -23 -37 -20 -59 1
-61 61 -4 68 63 94 64 94 2 1 -58 -6 -66 -50 -59 -64 10 -175 -44 -175 -85 0
-4 18 -16 41 -26 30 -14 51 -17 79 -12 21 4 45 3 52 -1 25 -17 55 -9 84 23 19
20 23 29 12 25 -10 -4 -18 -5 -18 -4 0 1 9 26 20 55 49 129 11 191 -90 146z"/>
</g>
</svg>
